<svg width="31" height="31" viewBox="0 0 31 31" fill="none" xmlns="http://www.w3.org/2000/svg">
<g clip-path="url(#clip0_36_293)">
<path fill-rule="evenodd" clip-rule="evenodd" d="M0 0H31V31H0V0Z" fill="#229E45"/>
<path fill-rule="evenodd" clip-rule="evenodd" d="M15.8269 24.5458L29.7406 15.5122L15.7422 6.45435L1.77399 15.5364L15.8209 24.5458H15.8269Z" fill="#F8E509"/>
<path fill-rule="evenodd" clip-rule="evenodd" d="M21.8877 15.5004C21.9122 16.2888 21.7779 17.074 21.493 17.8094C21.208 18.5449 20.7781 19.2155 20.2288 19.7815C19.6795 20.3476 19.022 20.7974 18.2955 21.1043C17.5689 21.4112 16.7881 21.569 15.9993 21.5682C15.2106 21.5673 14.4301 21.408 13.7042 21.0996C12.9782 20.7912 12.3217 20.34 11.7736 19.7728C11.2255 19.2057 10.7969 18.5342 10.5135 17.7981C10.23 17.0621 10.0974 16.2766 10.1235 15.4883C10.174 13.961 10.8167 12.5132 11.9156 11.4512C13.0144 10.3892 14.4833 9.79628 16.0114 9.79785C17.5396 9.79943 19.0073 10.3954 20.1039 11.4596C21.2006 12.5239 21.8403 13.973 21.8877 15.5004Z" fill="#2B49A3"/>
<path fill-rule="evenodd" clip-rule="evenodd" d="M14.065 19.0239L13.8834 18.9149L13.6957 19.0118L13.7381 18.7999L13.5928 18.6485L13.7986 18.6243L13.8955 18.4305L13.9863 18.6303L14.1922 18.6666L14.0348 18.812M18.0127 20.0229L17.831 19.9139L17.6373 20.0108L17.6797 19.7989L17.5344 19.6475L17.7463 19.6233L17.8432 19.4295L17.9279 19.6293L18.1338 19.6657L17.9824 19.811M16.3113 18.4245L16.1539 18.3336L15.9904 18.4124L16.0267 18.2307L15.9057 18.0975L16.0812 18.0793L16.166 17.9159L16.2387 18.0854L16.4203 18.1157L16.2871 18.2368M20.2953 17.8493L20.1379 17.7584L19.9805 17.8372L20.0168 17.6616L19.8957 17.5344L20.0713 17.5102L20.15 17.3528L20.2287 17.5163L20.4043 17.5465L20.2711 17.6676M16.2387 16.6565L16.057 16.5475L15.8693 16.6444L15.9117 16.4325L15.7664 16.2811L15.9723 16.2569L16.0691 16.0692L16.1599 16.2629L16.3658 16.2993L16.2084 16.4446M11.3828 14.834L11.2012 14.725L11.0195 14.8219L11.0558 14.61L10.9105 14.4586L11.1224 14.4344L11.2193 14.2407L11.3041 14.4405L11.5099 14.4768L11.3586 14.6221M11.9701 17.2559L11.7885 17.153L11.6008 17.2438L11.6432 17.0379L11.4978 16.8805L11.7037 16.8563L11.8006 16.6747L11.8914 16.8624L12.0973 16.9047L11.9398 17.044M18.0308 13.9379L17.8734 13.8471L17.7039 13.9258L17.7402 13.7442L17.6191 13.6049L17.8008 13.5868L17.8855 13.4172L17.9642 13.5928L18.1459 13.6231L18.0066 13.7502M17.7039 15.5182L17.5586 15.4395L17.4314 15.5L17.4557 15.3547L17.3588 15.2518L17.5041 15.2336L17.5707 15.1004L17.6312 15.2397L17.7766 15.2639L17.6676 15.3608M11.1043 17.6918L10.9832 17.6192L10.856 17.6797L10.8803 17.5405L10.7834 17.4375L10.9287 17.4254L10.9892 17.3043L11.0498 17.4254L11.1891 17.4557L11.0861 17.5526M20.3256 18.2489L20.2226 18.2004L20.1197 18.2428L20.1439 18.1399L20.0652 18.0612L20.1803 18.0491L20.2348 17.9583L20.2771 18.0551L20.3922 18.0733L20.3074 18.1459" fill="#FFFFEF"/>
<path fill-rule="evenodd" clip-rule="evenodd" d="M11.1104 17.6983L10.9894 17.6256L10.8622 17.6862L10.8925 17.5469L10.7896 17.444L10.9288 17.4319L10.9954 17.3108L11.056 17.4319L11.1952 17.4622L11.0923 17.559" fill="#FFFFEF"/>
<path fill-rule="evenodd" clip-rule="evenodd" d="M11.1104 17.6983L10.9894 17.6256L10.8622 17.6862L10.8925 17.5469L10.7896 17.444L10.9288 17.4319L10.9954 17.3108L11.056 17.4319L11.1952 17.4622L11.0923 17.559M13.0419 17.6983L12.9208 17.6256L12.7997 17.6862L12.8239 17.5469L12.7271 17.444L12.8663 17.4319L12.9269 17.3047L12.9874 17.4319L13.1267 17.4622L13.0237 17.559M12.7997 18.3461L12.6786 18.2735L12.5575 18.334L12.5817 18.1948L12.4849 18.0918L12.6241 18.0737L12.6847 17.9526L12.7452 18.0737L12.8845 18.104L12.7815 18.2008M16.82 17.1715L16.6989 17.0989L16.5718 17.1594L16.596 17.0202L16.4991 16.9172L16.6384 16.9051L16.705 16.778L16.7655 16.9051L16.8987 16.9293L16.7958 17.0262M15.6394 17.1715L15.5183 17.0989L15.3911 17.1594L15.4214 17.0202L15.3245 16.9172L15.4638 16.9051L15.5243 16.778L15.5849 16.9051L15.7241 16.9293L15.6212 17.0262M12.4425 16.7598L12.3698 16.7174L12.2911 16.7538L12.3032 16.6629L12.2427 16.6024L12.3335 16.5903L12.3759 16.5116L12.4062 16.5963L12.497 16.6084L12.4364 16.669M20.1743 18.77L20.0532 18.7034L19.9261 18.7639L19.9563 18.6247L19.8595 18.5217L19.9987 18.5036L20.0593 18.3825L20.1198 18.5036L20.2591 18.5338L20.1562 18.6307M19.1874 18.8971L19.0905 18.8366L18.9876 18.8971L19.0118 18.776L18.927 18.6913L19.0481 18.6792L19.0966 18.5762L19.145 18.6792L19.2661 18.7034L19.1753 18.7821M19.6597 18.8911L19.5628 18.8305L19.4659 18.885L19.4841 18.776L19.4114 18.6973L19.5204 18.6852L19.5688 18.5883L19.6112 18.6852L19.7202 18.7034L19.6415 18.7821M20.9856 17.7286L20.8948 17.6741L20.7979 17.7225L20.8222 17.6196L20.7495 17.5409L20.8524 17.5288L20.9009 17.4379L20.9433 17.5348L21.0462 17.553L20.9675 17.6256M19.1935 19.551L19.0724 19.4844L18.9513 19.545L18.9815 19.4118L18.8847 19.3209L19.0179 19.3028L19.0845 19.1877L19.145 19.3088L19.2722 19.3331L19.1753 19.4178M19.1995 20.0778L19.0905 20.0172L18.9815 20.0717L19.0058 19.9385L18.921 19.8477L19.0421 19.8295L19.1026 19.7145L19.1511 19.8356L19.2722 19.8598L19.1813 19.9446M18.3034 18.8911L18.2126 18.8366L18.1157 18.885L18.1399 18.776L18.0673 18.7034L18.1702 18.6913L18.2187 18.5944L18.261 18.6913L18.364 18.7094L18.2853 18.7821M17.4679 18.8911L17.377 18.8366L17.2802 18.885L17.3044 18.776L17.2317 18.7034L17.3347 18.6913L17.3831 18.5944L17.4255 18.6913L17.5284 18.7094L17.4558 18.7821M16.045 17.6438L15.9542 17.5893L15.8573 17.6377L15.8815 17.5348L15.8089 17.4561L15.9118 17.444L15.9603 17.3532L16.0026 17.4501L16.1056 17.4682L16.0269 17.5348M16.2024 20.1686L16.1237 20.1262L16.045 20.1686L16.0632 20.0778L16.0026 20.0172L16.0874 19.9991L16.1298 19.9204L16.1661 20.0051L16.2569 20.0172L16.1903 20.0778M14.0591 16.0817L13.8774 15.9788L13.6897 16.0696L13.7321 15.8637L13.5868 15.7063L13.7927 15.6821L13.8895 15.4944L13.9804 15.6881L14.1862 15.7245L14.0288 15.8698" fill="#FFFFEF"/>
<path fill-rule="evenodd" clip-rule="evenodd" d="M21.5002 17.6193C21.6141 17.3224 21.7032 17.0166 21.7666 16.705C18.6424 13.9562 15.1549 12.5454 10.7471 12.836C10.5891 13.1446 10.4595 13.4668 10.3596 13.7987C12.3817 13.5945 14.4241 13.8296 16.3469 14.488C18.2697 15.1464 20.0276 16.2124 21.5002 17.6132V17.6193Z" fill="white"/>
<path d="M20.0955 16.0696L20.2045 16.1301C20.1875 16.1638 20.1832 16.2025 20.1924 16.2391C20.1984 16.2633 20.2227 16.2936 20.2529 16.3118C20.2893 16.336 20.3195 16.3481 20.3498 16.3481C20.374 16.3481 20.3982 16.3299 20.4103 16.3118C20.4164 16.2997 20.4225 16.2876 20.4164 16.2694L20.3982 16.2209L20.3256 16.1422C20.287 16.103 20.258 16.0553 20.2408 16.003C20.2302 15.9636 20.2342 15.9217 20.252 15.885C20.2698 15.8483 20.3002 15.8193 20.3377 15.8032C20.37 15.7889 20.4059 15.7847 20.4406 15.7911C20.4843 15.8006 20.5256 15.8191 20.5617 15.8456C20.6142 15.8825 20.656 15.9326 20.6828 15.9909C20.6901 16.0177 20.6912 16.0458 20.686 16.0731C20.6807 16.1004 20.6693 16.1261 20.6525 16.1483L20.5436 16.0817C20.5557 16.0514 20.5617 16.0211 20.5557 15.9969C20.5496 15.9788 20.5254 15.9545 20.4951 15.9364C20.4648 15.9122 20.4346 15.9061 20.4103 15.9061C20.4033 15.9063 20.3965 15.9081 20.3902 15.9112C20.3839 15.9143 20.3784 15.9188 20.374 15.9243C20.3698 15.9304 20.3671 15.9374 20.3661 15.9448C20.365 15.9521 20.3657 15.9596 20.368 15.9667C20.368 15.9909 20.3982 16.0272 20.4406 16.0696L20.5314 16.1907C20.548 16.2208 20.5556 16.255 20.5534 16.2893C20.5513 16.3236 20.5395 16.3566 20.5193 16.3844C20.4982 16.4144 20.4687 16.4376 20.4346 16.451C20.3986 16.4675 20.3582 16.4717 20.3195 16.4631C20.2736 16.4514 20.2304 16.4309 20.1924 16.4026C20.1352 16.3683 20.0922 16.3145 20.0713 16.2512C20.0531 16.1967 20.0592 16.1362 20.0955 16.0696ZM19.5627 15.7245L19.6838 15.785C19.6696 15.8152 19.6653 15.8491 19.6717 15.8819C19.6777 15.9122 19.702 15.9424 19.7322 15.9606C19.7686 15.9848 19.7988 15.9909 19.8291 15.9848C19.8533 15.9848 19.8775 15.9727 19.8896 15.9485C19.8954 15.9373 19.8975 15.9246 19.8957 15.9122C19.8957 15.894 19.8896 15.8819 19.8715 15.8637L19.7988 15.785C19.759 15.748 19.7279 15.7025 19.708 15.6518C19.7 15.6278 19.6974 15.6022 19.7006 15.5771C19.7037 15.5519 19.7125 15.5278 19.7262 15.5065C19.7442 15.4798 19.7694 15.4588 19.7988 15.4459C19.8312 15.432 19.867 15.4278 19.9018 15.4338C19.9381 15.4338 19.9744 15.452 20.0229 15.4823C20.0834 15.5247 20.1318 15.567 20.1439 15.6215C20.153 15.6474 20.1561 15.6751 20.1529 15.7023C20.1498 15.7296 20.1405 15.7558 20.1258 15.779L20.0107 15.7124C20.0289 15.6821 20.0289 15.6518 20.0229 15.6336C20.0107 15.6094 19.9926 15.5913 19.9623 15.5731C19.9363 15.553 19.9043 15.5424 19.8715 15.5428C19.864 15.5437 19.8567 15.5464 19.8504 15.5506C19.8441 15.5548 19.8389 15.5604 19.8352 15.567C19.8319 15.5736 19.8303 15.5809 19.8303 15.5882C19.8303 15.5956 19.8319 15.6028 19.8352 15.6094C19.8352 15.6276 19.8654 15.6639 19.9078 15.7124C19.9562 15.7547 19.9865 15.7971 20.0047 15.8213C20.0233 15.8516 20.0327 15.8866 20.0316 15.9221C20.0305 15.9577 20.0191 15.9921 19.9986 16.0211C19.978 16.0525 19.9487 16.0772 19.9143 16.0923C19.8799 16.1073 19.8419 16.1121 19.8049 16.1059C19.7573 16.0967 19.7121 16.0781 19.6717 16.0514C19.6137 16.0193 19.5687 15.9679 19.5445 15.9061C19.5273 15.8454 19.5338 15.7805 19.5627 15.7245ZM18.9088 15.5428L19.2478 14.9979L19.6535 15.2401L19.593 15.337L19.3023 15.1553L19.2236 15.2764L19.5021 15.4459L19.4416 15.5428L19.1691 15.3733L19.0783 15.5247L19.3811 15.7063L19.3266 15.8032L18.9088 15.5489V15.5428ZM17.9521 14.7618L18.0066 14.6649L18.2488 14.7981L18.1338 15.0221C18.0356 15.0439 17.9329 15.0311 17.8432 14.9858C17.789 14.9577 17.7431 14.916 17.71 14.8647C17.678 14.8185 17.661 14.7635 17.6615 14.7073C17.6615 14.6467 17.6797 14.5922 17.71 14.5377C17.7379 14.4818 17.7796 14.4339 17.8311 14.3985C17.8734 14.3622 17.934 14.344 17.9945 14.344C18.0369 14.344 18.0914 14.3622 18.1459 14.3864C18.2056 14.4144 18.2545 14.4612 18.2852 14.5196C18.3094 14.568 18.3154 14.6225 18.3033 14.6831L18.1762 14.6467C18.183 14.616 18.1787 14.5838 18.1641 14.5559C18.148 14.5262 18.1224 14.5028 18.0914 14.4893C18.0699 14.476 18.0458 14.4675 18.0207 14.4644C17.9957 14.4612 17.9702 14.4635 17.9461 14.4711C17.9037 14.4893 17.8613 14.5317 17.825 14.5922C17.7955 14.6479 17.7849 14.7116 17.7947 14.7739C17.8068 14.8223 17.8371 14.8586 17.8916 14.8829L17.9703 14.9071H18.049L18.0854 14.8344L17.9521 14.7618ZM13.7865 13.7325L13.8834 13.0907L14.0771 13.1209L14.1256 13.575L14.3072 13.1512L14.4949 13.1815L14.4041 13.8233L14.283 13.8051L14.3557 13.3026L14.1559 13.787L14.0348 13.7688L13.9803 13.242L13.9076 13.7506L13.7865 13.7325ZM13.1387 13.6538L13.1992 13.012L13.6715 13.0543L13.6654 13.1633L13.3143 13.1331L13.3021 13.2723L13.623 13.3026L13.617 13.4116L13.2961 13.3813L13.2779 13.5629L13.6352 13.5932L13.623 13.7022L13.1387 13.6538Z" fill="#309E3A"/>
<path d="M10.9832 13.2478C10.9832 13.1872 10.9953 13.1267 11.0135 13.0843L11.074 12.9995L11.1648 12.939C11.2096 12.9236 11.2569 12.9174 11.3041 12.9208C11.3461 12.9205 11.3877 12.929 11.4263 12.9457C11.4649 12.9624 11.4995 12.9869 11.5281 13.0177C11.5887 13.0782 11.6068 13.157 11.6068 13.2599C11.6068 13.3689 11.5705 13.4476 11.516 13.5021C11.4857 13.5315 11.4496 13.5542 11.4099 13.5688C11.3703 13.5834 11.3281 13.5895 11.2859 13.5868C11.2443 13.5879 11.203 13.5804 11.1645 13.5648C11.1259 13.5491 11.091 13.5257 11.0619 13.496C11.032 13.4638 11.0094 13.4254 10.9958 13.3836C10.9822 13.3418 10.9779 13.2975 10.9832 13.2538V13.2478Z" fill="#309E3A"/>
<path d="M11.1164 13.248C11.1164 13.3207 11.1285 13.3812 11.1648 13.4175C11.1951 13.4599 11.2375 13.4781 11.2859 13.4781C11.3107 13.4785 11.3353 13.474 11.3582 13.4646C11.3811 13.4552 11.4018 13.4413 11.4191 13.4236C11.4494 13.3873 11.4676 13.3328 11.4736 13.2601C11.4736 13.1814 11.4615 13.1269 11.4252 13.0906C11.4105 13.0724 11.3921 13.0576 11.3712 13.0472C11.3503 13.0367 11.3274 13.0309 11.3041 13.03C11.2436 13.03 11.2012 13.0482 11.1709 13.0845C11.1346 13.1209 11.1164 13.1753 11.1104 13.248H11.1164Z" fill="#F7FFFF"/>
<path d="M11.7461 13.5871L11.7521 12.9392H12.0246C12.0973 12.9392 12.1457 12.9513 12.176 12.9634C12.2063 12.9755 12.2365 12.9937 12.2486 13.024C12.2607 13.0542 12.2789 13.0845 12.2789 13.1269C12.2789 13.1753 12.2607 13.2117 12.2365 13.248C12.2063 13.2783 12.1639 13.2964 12.1033 13.3085C12.1336 13.3207 12.1578 13.3388 12.176 13.357L12.2486 13.466L12.3273 13.5871H12.1699L12.0791 13.4478C12.0569 13.414 12.0327 13.3817 12.0064 13.3509C11.9963 13.3402 11.9839 13.3319 11.9701 13.3267C11.9506 13.3197 11.9302 13.3157 11.9096 13.3146H11.8793V13.5871H11.7461Z" fill="#309E3A"/>
<path d="M11.8794 13.2114H11.9763C12.0165 13.2164 12.0572 13.2164 12.0974 13.2114L12.1276 13.1811C12.1397 13.169 12.1458 13.1508 12.1458 13.1327C12.1458 13.1084 12.1397 13.0903 12.1276 13.0782C12.1149 13.0646 12.0977 13.056 12.0792 13.054H11.8854V13.2114H11.8794Z" fill="white"/>
<path d="M12.4848 12.9695L12.7209 12.9816C12.7619 12.9822 12.8026 12.9883 12.842 12.9998C12.8765 13.0128 12.9075 13.0335 12.9328 13.0603C12.9611 13.0938 12.9817 13.1331 12.9933 13.1753C13.0055 13.2177 13.0055 13.2662 13.0055 13.3267C13.0073 13.3731 12.999 13.4193 12.9812 13.4621C12.9635 13.505 12.9366 13.5435 12.9025 13.575C12.8783 13.5931 12.848 13.6113 12.8117 13.6234H12.6906L12.4484 13.6173L12.4848 12.9695Z" fill="#309E3A"/>
<path d="M12.6059 13.0842L12.5877 13.5081L12.6846 13.5202H12.7633L12.8178 13.4899C12.8359 13.4778 12.842 13.4596 12.8541 13.4293L12.8723 13.3083L12.8662 13.1993C12.8541 13.169 12.8481 13.1508 12.8299 13.1387C12.8138 13.1209 12.7927 13.1082 12.7693 13.1024C12.7355 13.0953 12.701 13.0912 12.6664 13.0903H12.6059V13.0842Z" fill="white"/>
<path d="M15.6514 14.126L15.8027 13.4963L16.0025 13.5448C16.0812 13.5629 16.1297 13.5811 16.1539 13.5932C16.1842 13.6114 16.2145 13.6356 16.2266 13.6719C16.2447 13.7143 16.2447 13.7567 16.2326 13.8051C16.2273 13.8364 16.2138 13.8656 16.1936 13.8901C16.1735 13.9145 16.1472 13.9332 16.1176 13.9444C16.0967 13.9546 16.0741 13.9608 16.051 13.9625C16.0059 13.9586 15.9613 13.9505 15.9178 13.9383L15.833 13.9202L15.7725 14.1563L15.6514 14.126Z" fill="#309E3A"/>
<path d="M15.8996 13.6355L15.8572 13.8171L15.9299 13.8292C15.9783 13.8414 16.0147 13.8474 16.0328 13.8414C16.0496 13.8396 16.0654 13.8329 16.0784 13.8222C16.0913 13.8114 16.1008 13.797 16.1055 13.7808L16.0994 13.7142C16.089 13.6946 16.0718 13.6796 16.051 13.6718L15.9602 13.6476L15.8996 13.6355Z" fill="white"/>
<path d="M16.2507 14.3076L16.4626 13.696L16.723 13.7869C16.7702 13.8002 16.8151 13.8206 16.8562 13.8474C16.8804 13.8716 16.8986 13.9019 16.9107 13.9382C16.9228 13.9746 16.9107 14.0048 16.8986 14.0412C16.8865 14.0896 16.8562 14.1199 16.8199 14.138C16.799 14.1502 16.776 14.158 16.7521 14.1611C16.7282 14.1642 16.7039 14.1626 16.6806 14.1562L16.7291 14.2289L16.7654 14.35L16.7957 14.4953L16.6503 14.4468L16.608 14.2833C16.5985 14.2442 16.5864 14.2058 16.5716 14.1683C16.5664 14.1545 16.5581 14.1421 16.5474 14.132C16.529 14.1186 16.5086 14.1084 16.4869 14.1017L16.4626 14.0957L16.3718 14.35L16.2507 14.3076Z" fill="#309E3A"/>
<path d="M16.493 13.9985L16.5838 14.0288L16.6988 14.059C16.717 14.059 16.7291 14.059 16.7412 14.0469L16.7715 14.0045V13.944C16.7638 13.9282 16.751 13.9154 16.7352 13.9077L16.6443 13.8774L16.5475 13.8411L16.493 13.9985Z" fill="white"/>
<path d="M17.0077 14.2836C17.023 14.2282 17.0498 14.1767 17.0864 14.1323C17.1045 14.102 17.1348 14.0838 17.1651 14.0657C17.195 14.0492 17.228 14.0389 17.262 14.0354C17.3043 14.0354 17.3528 14.0354 17.4012 14.0536C17.4423 14.0638 17.4808 14.0826 17.5141 14.1087C17.5475 14.1348 17.5751 14.1676 17.595 14.2049C17.6313 14.2776 17.6373 14.3684 17.601 14.4653C17.591 14.5088 17.5725 14.55 17.5465 14.5864C17.5205 14.6227 17.4876 14.6536 17.4496 14.6772C17.4123 14.6958 17.3715 14.7065 17.3298 14.7086C17.2881 14.7106 17.2465 14.7041 17.2075 14.6893C17.1664 14.679 17.1279 14.6603 17.0945 14.6342C17.0612 14.6081 17.0336 14.5753 17.0137 14.5379C16.9781 14.4573 16.9759 14.3659 17.0077 14.2836Z" fill="#309E3A"/>
<path d="M17.1348 14.3199C17.1166 14.3865 17.1166 14.441 17.1348 14.4895C17.159 14.5379 17.1953 14.5682 17.2438 14.5863C17.2922 14.5984 17.3346 14.5924 17.377 14.5682C17.4193 14.5439 17.4557 14.4955 17.4799 14.4229C17.4981 14.3502 17.4981 14.2957 17.4799 14.2473C17.4697 14.2249 17.4546 14.2051 17.4358 14.1894C17.4169 14.1737 17.3947 14.1624 17.3709 14.1564C17.3478 14.1489 17.3233 14.1467 17.2992 14.1498C17.2751 14.153 17.2521 14.1614 17.2317 14.1746C17.1893 14.1988 17.159 14.2473 17.1348 14.3199Z" fill="white"/>
<path d="M18.2671 15.1858L18.5638 14.6106L18.806 14.7317C18.8665 14.768 18.9089 14.7922 18.9271 14.8165C18.9513 14.8467 18.9634 14.877 18.9694 14.9073C18.9755 14.9375 18.9694 14.9799 18.9452 15.0102C18.927 15.0526 18.8968 15.0829 18.8544 15.101C18.812 15.1131 18.7696 15.1131 18.7151 15.095C18.7333 15.1192 18.7454 15.1495 18.7515 15.1737L18.7696 15.3008L18.7817 15.4522L18.6425 15.3795L18.6243 15.21L18.6062 15.0889C18.6009 15.0751 18.5927 15.0627 18.5819 15.0526C18.5658 15.0377 18.5474 15.0255 18.5274 15.0163L18.5032 15.0042L18.3821 15.2463L18.2671 15.1858Z" fill="#309E3A"/>
<path d="M18.5516 14.9131L18.6363 14.9555L18.7453 15.004C18.7635 15.004 18.7756 15.004 18.7877 14.9918C18.804 14.9834 18.8174 14.9702 18.826 14.954C18.8347 14.9377 18.8382 14.9193 18.8361 14.901C18.8296 14.8829 18.8167 14.8679 18.7998 14.8586C18.7742 14.8415 18.7479 14.8254 18.7211 14.8102L18.6303 14.7678L18.5516 14.9131Z" fill="white"/>
<path d="M20.6586 16.3661C20.6949 16.3056 20.7312 16.2693 20.7797 16.245C20.8092 16.2253 20.842 16.211 20.8765 16.2027C20.9085 16.1964 20.9414 16.1964 20.9734 16.2027C21.0158 16.2087 21.0642 16.2269 21.1066 16.2632C21.1424 16.285 21.1733 16.3141 21.1972 16.3485C21.2212 16.3829 21.2378 16.4219 21.2459 16.463C21.2547 16.5511 21.231 16.6394 21.1793 16.7112C21.1563 16.7503 21.1257 16.7844 21.0893 16.8114C21.0529 16.8385 21.0114 16.8579 20.9674 16.8687C20.9264 16.8763 20.8842 16.8755 20.8436 16.8661C20.803 16.8567 20.7647 16.839 20.7312 16.8142C20.6955 16.7923 20.6646 16.7633 20.6406 16.7289C20.6167 16.6945 20.6001 16.6555 20.592 16.6144C20.5852 16.571 20.5871 16.5268 20.5975 16.4842C20.6079 16.4416 20.6266 16.4015 20.6525 16.3661H20.6586Z" fill="#309E3A"/>
<path d="M20.7676 16.4324C20.7313 16.4929 20.7131 16.5535 20.7192 16.6019C20.7233 16.6264 20.7324 16.6498 20.746 16.6706C20.7595 16.6915 20.7772 16.7093 20.7979 16.723C20.8171 16.7363 20.8389 16.7454 20.8619 16.7496C20.8848 16.7537 20.9084 16.7529 20.9311 16.7472C20.9795 16.7351 21.028 16.6988 21.0703 16.6322C21.1127 16.5716 21.1309 16.5172 21.1188 16.4687C21.1188 16.4203 21.0885 16.384 21.0461 16.3476C21.0037 16.3113 20.9553 16.3113 20.9069 16.3234C20.8584 16.3355 20.816 16.3718 20.7737 16.4324H20.7676Z" fill="white"/>
<path d="M14.9187 13.8657L15.0216 13.4055L15.3607 13.4842L15.3425 13.5629L15.1003 13.5024L15.0761 13.6053L15.3001 13.6598L15.282 13.7385L15.058 13.678L15.0277 13.8051L15.282 13.8657L15.2638 13.9444L14.9187 13.8657Z" fill="#309E3A"/>
</g>
<defs>
<clipPath id="clip0_36_293">
<rect width="31" height="31" rx="6.2" fill="white"/>
</clipPath>
</defs>
</svg>
